<svg xmlns="http://www.w3.org/2000/svg" width="5542.906" height="1086" viewBox="0 0 5542.906 1086">
  <g id="Layer_x0020_1" transform="translate(-0.094)">
    <g id="_2589347859264">
      <path id="Path_297" data-name="Path 297" d="M3720,393h-83V816h83V595c7-73,56-123,133-118V389c-56-3-109,32-133,88Zm-369,75c-69,0-118,56-118,137,0,82,49,138,118,138,68,0,117-56,117-138,0-81-49-137-117-137Zm0-79c118,0,200,87,200,215s-82,216-200,216c-119,0-200-88-200-216S3232,389,3351,389ZM3089,719c-17,11-37,17-57,19-26,0-42-14-42-58V477h114V408H2990V292h-82V408h-54v69h54V697c0,87,50,124,108,124a171.364,171.364,0,0,0,94-32ZM2644,389c-114,0-194,88-194,216s80,215,194,215c72,0,128-29,163-79l-47-51c-29,35-70,53-113,51-66,0-114-55-114-136,0-80,48-135,114-135,41-2,81,15,110,48l45-59C2767,414,2713,389,2644,389Zm-444,79c-69,0-118,56-118,137,0,82,49,138,118,138s117-56,117-138c0-81-48-137-117-137Zm0-79c118,0,200,87,200,215s-82,216-200,216c-119,0-200-88-200-216S2081,389,2200,389Zm-633-46V732h124c93,2,171-79,173-183V538c3-105-72-192-167-195H1567Zm-85-84h207c151,0,261,117,261,279,0,161-111,279-263,279H1482Z" fill="#323c7a"/>
      <path id="Path_298" data-name="Path 298" d="M4265,343V259H3926V816h86V588h229V504H4012V343Z" fill="#ed7181"/>
      <path id="Path_299" data-name="Path 299" d="M4456,748c60,0,105-34,109-81V628H4462c-55,0-80,16-80,57,0,38,28,63,75,63Zm110,68V765c-27,37-71,55-127,55-83,0-135-56-135-131,0-77,53-127,145-128h116V549c0-54-31-86-91-86-41,2-80,17-113,43l-34-63c48-37,106-55,165-54,99,0,154,56,155,149l1,278Z" fill="#ed7181"/>
      <path id="Path_300" data-name="Path 300" d="M4842,393h-83V817h83V595c6-73,55-123,132-118V389c-56-3-108,32-132,88Z" fill="#ed7181"/>
      <path id="Path_301" data-name="Path 301" d="M5089,573h219c1-60-43-110-97-111a37.513,37.513,0,0,0-10,1c-58-3-107,46-112,110Zm112-184c135,0,189,98,179,251H5090c11,63,61,108,119,106,41,0,80-18,109-50l44,52c-42,48-99,74-159,72-118,0-196-87-196-215-5-113,74-210,176-216Z" fill="#ed7181"/>
      <path id="Path_302" data-name="Path 302" d="M485,588l-55-56,69-25Z" fill="#ed7183"/>
      <path id="Path_303" data-name="Path 303" d="M503,478l-87,32-83-69,192-72Z" fill="#ed7183"/>
      <path id="Path_304" data-name="Path 304" d="M299,330l26,85,192-71-26-85Z" fill="#ed7183"/>
      <path id="Path_305" data-name="Path 305" d="M414,779c-114,0-224-52-303-145C26,535-13,399,4,264c1-14,9-25,20-30l140-69c18-9,39,0,47,20,8,19,0,42-18,50h0L71,295c-7,106,26,210,91,287,130,152,347,161,487,19,64-68,101-163,100-261,2-92-23-182-71-257L537,132c-18,6-38-5-44-25s4-42,23-48h0L680,1c1,0,2-1,3-1h15a34.552,34.552,0,0,1,19,13c68,93,104,209,102,328,0,120-44,234-123,317-76,78-177,121-282,121Z" fill="#323c7a"/>
      <path id="Path_306" data-name="Path 306" d="M724,1086c-11,0-21-1-31-4-63-16-116-80-159-191-19-49-33-100-44-152-3-21,11-41,30-44,17-3,34,9,39,28,9,48,23,94,40,139,33,84,72,135,110,145,28,8,76-4,144-99,12-17,34-20,50-7,15,13,17,37,6,54h-1c-62,87-124,131-184,131Z" fill="#323c7a"/>
      <path id="Path_307" data-name="Path 307" d="M518,166c-33,0-60-29-61-66,0-29,18-55,44-63l84-27c32-10,65,10,74,45s-9,71-40,82h0l-85,26a45.292,45.292,0,0,1-16,3Z" fill="#323c7a"/>
      <path id="Path_308" data-name="Path 308" d="M183,269c-33,0-60-29-60-66,0-29,18-55,43-64l85-27c31-10,65,9,74,44,10,35-7,72-39,83h-2l-84,27a46.712,46.712,0,0,1-17,3Z" fill="#323c7a"/>
      <g id="Group_81" data-name="Group 81">
        <path id="Path_309" data-name="Path 309" d="M889,930c-17-13-28-33-31-56L828,654v-3c-5-41,5-83,28-116,48-70,138-85,202-32,29,21,50,51,60,87,35,1,69,14,95,38,64,52,78,151,31,222l-1,1a209.358,209.358,0,0,1-24,28c-19,18-44,31-70,34L947,946c-21,3-41-2-58-16Zm128-366c-34-27-81-20-106,17-11,17-16,39-14,60v1l30,221c1,5,5,8,9,7h0l203-33c13-1,24-7,34-16l1-1c32-29,37-80,11-116-4-5-8-10-13-14-41-33-63-22-70-18l-57,28,8-68c1-9,4-35-36-68Z" fill="#323c7a"/>
      </g>
      <g id="_2589347859552">
        <path id="Path_310" data-name="Path 310" d="M5538,330h-5c0,8-2,15-5,22-4,10-10,19-19,25-8,6-19,9-30,9a52.224,52.224,0,0,1-21-4c-9-4-17-12-23-21a56.144,56.144,0,0,1-9-31c0-8,1-16,4-22a59.67,59.67,0,0,1,19-25c9-6,19-10,30-10a46.484,46.484,0,0,1,21,5,52.019,52.019,0,0,1,24,20c5,9,9,20,9,32h10c0-10-2-18-5-27a66.311,66.311,0,0,0-23-29c-10-7-23-12-36-12a50.25,50.25,0,0,0-24,6c-12,5-22,13-28,24a70.417,70.417,0,0,0-11,38,69.938,69.938,0,0,0,28,56,60.618,60.618,0,0,0,35,11c9,0,17-2,25-5,11-5,21-14,28-25,7-10,11-23,11-37Z" fill="#323c7a"/>
        <path id="Path_311" data-name="Path 311" d="M5468,307h16a9.078,9.078,0,0,1,7,3c2,1,3,3,3,7,0,3-1,6-3,7-2,2-4,2-7,2h-16Zm-14,57h14V337h14c4,0,6,1,8,3,2,1,3,4,3,8,0,1,1,3,1,5v6c0,2,1,4,1,5h15c-1-2-2-3-2-6-1-2-1-5-1-8v-2a20.158,20.158,0,0,0-3-11c-1-3-3-4-7-5h0c4-2,7-4,8-7,2-3,3-6,3-11a18.539,18.539,0,0,0-2-7l-3-6a20.92,20.92,0,0,0-6-4,22.018,22.018,0,0,0-8-1h-35Z" fill="#323c7a" fill-rule="evenodd"/>
      </g>
    </g>
  </g>
</svg>
